<?xml version="1.0" standalone="no"?><!DOCTYPE svg PUBLIC "-//W3C//DTD SVG 1.1//EN" "http://www.w3.org/Graphics/SVG/1.1/DTD/svg11.dtd"><svg t="1631348773656" class="icon" viewBox="0 0 1053 1024" version="1.1" xmlns="http://www.w3.org/2000/svg" p-id="5755" xmlns:xlink="http://www.w3.org/1999/xlink" width="205.6640625" height="200"><defs><style type="text/css"></style></defs><path d="M506.092308 1024A506.092308 506.092308 0 0 1 0 517.907692c0-255.531136 191.038828-471.466667 444.3663-502.341392L572.178755 0l-55.982418 115.973626a361.96337 361.96337 0 0 0-36.126007 158.640293c0 201.494505 163.938462 365.432967 365.432967 365.432967a371.832967 371.832967 0 0 0 44.72967-2.719413l127.835897-15.589744-56.029304 115.973626A506.115751 506.115751 0 0 1 506.092308 1024z m-159.41392-835.024176a365.948718 365.948718 0 0 0-205.925274 328.931868c0 201.494505 163.938462 365.432967 365.432967 365.432967a364.964103 364.964103 0 0 0 260.21978-108.776556 506.373626 506.373626 0 0 1-426.994872-499.950184 508.717949 508.717949 0 0 1 7.173626-85.638095z" fill="#FCAC38" p-id="5756"></path><path d="M980.325275 425.635165l-117.473993-85.333333-117.473993 85.333333 44.893773-138.104029-117.520879-85.333334h145.347985l44.846887-138.080586 44.87033 138.080586h145.207326l-117.473993 85.333334z" fill="#EF8E25" p-id="5757"></path></svg>