<?xml version="1.0" standalone="no"?><!DOCTYPE svg PUBLIC "-//W3C//DTD SVG 1.1//EN" "http://www.w3.org/Graphics/SVG/1.1/DTD/svg11.dtd"><svg t="1631348777712" class="icon" viewBox="0 0 1024 1024" version="1.1" xmlns="http://www.w3.org/2000/svg" p-id="5919" xmlns:xlink="http://www.w3.org/1999/xlink" width="200" height="200"><defs><style type="text/css"></style></defs><path d="M512 128a384 384 0 1 1-271.530667 112.469333A381.482667 381.482667 0 0 1 512 128m0-128C229.226667 0 0 229.226667 0 512s229.226667 512 512 512 512-229.226667 512-512S794.773333 0 512 0z" fill="#FC904A" p-id="5920"></path><path d="M512 405.333333a106.666667 106.666667 0 1 1-106.666667 106.666667 106.794667 106.794667 0 0 1 106.666667-106.666667m0-128a234.666667 234.666667 0 1 0 234.666667 234.666667 234.666667 234.666667 0 0 0-234.666667-234.666667z" fill="#F27638" p-id="5921"></path></svg>