<?xml version="1.0" standalone="no"?><!DOCTYPE svg PUBLIC "-//W3C//DTD SVG 1.1//EN" "http://www.w3.org/Graphics/SVG/1.1/DTD/svg11.dtd"><svg t="1631348792639" class="icon" viewBox="0 0 1024 1024" version="1.1" xmlns="http://www.w3.org/2000/svg" p-id="6412" xmlns:xlink="http://www.w3.org/1999/xlink" width="200" height="200"><defs><style type="text/css"></style></defs><path d="M509.813562 1024c-135.734936 0-263.690987-53.441373-360.201888-150.457682a511.736309 511.736309 0 0 1 0-723.128584C246.232446 53.419399 374.122575 0 509.813562 0c134.042918 0 261.12 47.354506 357.762747 133.339742 98.334764 87.501459 153.819742 204.514335 156.346781 329.613734v1.318455c0 173.596567-140.854936 314.869013-313.990043 314.869013h-88.907811a8.7897 8.7897 0 0 0-8.240343 8.240344 18.304549 18.304549 0 0 0 3.318111 6.196738c21.029356 23.468498 33.422833 56.781459 33.422833 90.424034A140.063863 140.063863 0 0 1 509.813562 1024z m0-892.154506c-100.378369 0-195.087382 39.553648-266.701459 111.585236a379.846867 379.846867 0 0 0 0 537.116566C314.72618 852.600858 409.435193 892.154506 509.813562 892.154506a8.372189 8.372189 0 0 0 7.844807-8.240343 10.042232 10.042232 0 0 0-0.549356-3.186266l-1.735966-1.735966-2.746781-3.625751c-21.336996-28.214936-31.708841-57.133047-31.708841-88.072789a140.239657 140.239657 0 0 1 140.085837-140.085837h88.951759c100.202575 0 181.792961-81.76618 182.14455-182.386266C888.056309 281.270386 716.72309 131.845494 509.813562 131.845494z" fill="#F45D5D" p-id="6413"></path><path d="M309.100773 457.789528m-65.922747 0a65.922747 65.922747 0 1 0 131.845493 0 65.922747 65.922747 0 1 0-131.845493 0Z" fill="#EA4747" p-id="6414"></path><path d="M468.787639 285.665236m-65.922746 0a65.922747 65.922747 0 1 0 131.845493 0 65.922747 65.922747 0 1 0-131.845493 0Z" fill="#EA4747" p-id="6415"></path><path d="M700.242403 351.587983m-65.922746 0a65.922747 65.922747 0 1 0 131.845493 0 65.922747 65.922747 0 1 0-131.845493 0Z" fill="#EA4747" p-id="6416"></path></svg>