<?xml version="1.0" standalone="no"?><!DOCTYPE svg PUBLIC "-//W3C//DTD SVG 1.1//EN" "http://www.w3.org/Graphics/SVG/1.1/DTD/svg11.dtd"><svg t="1631348740209" class="icon" viewBox="0 0 1120 1024" version="1.1" xmlns="http://www.w3.org/2000/svg" p-id="5102" xmlns:xlink="http://www.w3.org/1999/xlink" width="218.75" height="200"><defs><style type="text/css"></style></defs><path d="M921.855936 457.948109L662.126684 198.194791 560.035183 96.103289A328.095902 328.095902 0 0 0 96.074794 560.135878L560.035183 1024l463.767854-463.864122 0.144401-0.144401zM560.035183 819.79293L198.190362 457.948109A183.663622 183.663622 0 1 1 457.919614 198.194791l23.633629 23.633629 128.179948 128.155881 160.333235 160.309168 49.698009 49.842409-90.10622 90.130286z" fill="#F45D5D" p-id="5103"></path><path d="M1023.971505 96.103289a328.006855 328.006855 0 0 0-463.936322 0c-1.612478 1.588411-3.200889 3.200889-4.813367 4.813366-0.673871 0.697938-1.371809 1.395876-1.997547 2.117881a5.029968 5.029968 0 0 0-0.481336 0.529471q-2.093814 2.166015-4.043228 4.33203s-66.737325 112.560574-67.218662 113.908316l128.179947 128.179948c-0.433203-3.634092-0.746072-7.22005-0.938606-10.926342-1.034874-16.55798 6.088909-59.421008 6.257376-60.022679 0.697938-2.551084 29.169-62.958833 47.074724-80.864556a183.699723 183.699723 0 0 1 259.801452 259.777385c-34.656238 34.680305-148.059151 52.947031-151.621042 52.513828l49.577674 49.577674-90.106219 90.130286c2.406683 0.505403 230.127048-26.016245 294.144822-89.961818l0.144401-0.144401a328.006855 328.006855 0 0 0-0.024067-463.960389z" fill="#F45D5D" p-id="5104"></path><path d="M457.914801 198.211637l102.108348-102.105941 102.105942 102.105941-102.105942 102.108349zM819.766841 560.022764l102.108349-102.105942 102.105942 102.105942-102.105942 102.108349z" fill="#EA4747" p-id="5105"></path></svg>