<?xml version="1.0" standalone="no"?><!DOCTYPE svg PUBLIC "-//W3C//DTD SVG 1.1//EN" "http://www.w3.org/Graphics/SVG/1.1/DTD/svg11.dtd"><svg t="1631348760036" class="icon" viewBox="0 0 1110 1024" version="1.1" xmlns="http://www.w3.org/2000/svg" p-id="5265" xmlns:xlink="http://www.w3.org/1999/xlink" width="216.796875" height="200"><defs><style type="text/css"></style></defs><path d="M796.530266 0c-164.543843 0-300.55742 128.337922-312.891571 289.840468H482.745616a311.370922 311.370922 0 0 0-168.960966-49.722799H0v120.686404c0 172.581558 141.203093 313.78465 313.78465 313.78465h168.960966v204.563455h-120.686404v144.823685h386.196492v-144.823685h-120.686404V434.471054h168.960966c172.581558 0 313.78465-141.203093 313.78465-313.78465V0zM313.78465 529.789176a170.16783 170.16783 0 0 1-167.223081-144.823685H313.78465a170.216104 170.216104 0 0 1 167.247219 144.823685z m601.935508-289.888742A167.657552 167.657552 0 0 1 796.530266 289.647369h-167.247219A170.16783 170.16783 0 0 1 796.530266 144.823685h167.223081a168.164435 168.164435 0 0 1-48.033189 95.076749z" fill="#4CD392" p-id="5266"></path><path d="M482.721478 289.840468H627.5693v384.772393h-144.847822zM482.721478 879.176315H627.5693v144.823685h-144.847822z" fill="#40BF73" p-id="5267"></path></svg>