<?xml version="1.0" standalone="no"?><!DOCTYPE svg PUBLIC "-//W3C//DTD SVG 1.1//EN" "http://www.w3.org/Graphics/SVG/1.1/DTD/svg11.dtd"><svg t="1631348763676" class="icon" viewBox="0 0 1318 1024" version="1.1" xmlns="http://www.w3.org/2000/svg" p-id="5427" xmlns:xlink="http://www.w3.org/1999/xlink" width="257.421875" height="200"><defs><style type="text/css"></style></defs><path d="M314.098866 680.989808v-173.03852c78.213411 0 105.524657-36.020852 121.126964-62.034309 21.629815-36.078531 21.629815-78.155732 21.629815-78.155732l173.038521 0.663314a366.870502 366.870502 0 0 1-38.385712 152.07202c-52.60371 103.505875-151.120308 160.493227-277.409588 160.493227z" fill="#FCAC38" p-id="5428"></path><path d="M389.082225 1023.980995a240.84078 240.84078 0 0 1-221.575825-146.505947 251.915245 251.915245 0 0 1-137.825181-355.853717A251.799886 251.799886 0 0 1 159.229391 168.853468a240.84078 240.84078 0 0 1 470.664775 72.099383v542.187363a241.100338 241.100338 0 0 1-240.811941 240.840781z m0-850.772724a68.032978 68.032978 0 0 0-67.744581 66.792869l-1.06707 77.1175-76.627225 7.700214a78.472969 78.472969 0 0 0-46.403163 134.566289l64.485688 62.236188-64.485688 62.265028A78.472969 78.472969 0 0 0 244.335503 718.510327l68.292536 6.258227 9.488279 67.946459a67.77342 67.77342 0 0 0 134.739327-9.574799v-542.187363A67.85994 67.85994 0 0 0 389.082225 173.150591z" fill="#FCAC38" p-id="5429"></path><path d="M456.855645 651.717458c57.996744-26.705612 104.08267-71.089992 134.652809-131.220877a366.870502 366.870502 0 0 0 38.385712-152.07202l-173.038521-0.663314z" fill="#EF8E25" p-id="5430"></path><path d="M1003.772728 680.989808v-173.03852c-78.213411 0-105.524657-36.020852-121.126964-62.034309-21.629815-36.078531-21.629815-78.155732-21.629815-78.155732l-173.03852 0.663314a366.870502 366.870502 0 0 0 38.385711 152.07202c52.60371 103.505875 151.120308 160.493227 277.409588 160.493227z" fill="#FCAC38" p-id="5431"></path><path d="M687.977429 783.140214v-542.187363a240.86962 240.86962 0 0 1 470.664774-72.099383 251.915245 251.915245 0 0 1 129.548172 352.739023 251.828726 251.828726 0 0 1-137.825181 355.882557 240.81194 240.81194 0 0 1-462.387765-94.334834z m173.03852-542.187363v542.187363a67.77342 67.77342 0 0 0 134.854686 9.545959l9.488279-67.946459 68.292536-6.258227a78.472969 78.472969 0 0 0 47.095317-134.623968l-64.485688-62.265028 64.485688-62.236187a78.472969 78.472969 0 0 0-46.518522-134.53745l-76.742583-7.757893-1.067071-77.117501a67.77342 67.77342 0 0 0-135.546841 0.980552z" fill="#FCAC38" p-id="5432"></path><path d="M861.015949 651.717458c-57.996744-26.705612-104.08267-71.089992-134.652809-131.220877a366.870502 366.870502 0 0 1-38.385711-152.07202l173.03852-0.663314z" fill="#EF8E25" p-id="5433"></path></svg>