<?xml version="1.0" standalone="no"?><!DOCTYPE svg PUBLIC "-//W3C//DTD SVG 1.1//EN" "http://www.w3.org/Graphics/SVG/1.1/DTD/svg11.dtd"><svg t="1631348769049" class="icon" viewBox="0 0 1024 1024" version="1.1" xmlns="http://www.w3.org/2000/svg" p-id="5593" xmlns:xlink="http://www.w3.org/1999/xlink" width="200" height="200"><defs><style type="text/css"></style></defs><path d="M105.188231 68.060971h136.121943v158.808933h-136.121943zM341.74548 0h136.121943v226.869904h-136.121943zM578.30273 68.060971h136.121942v158.808933h-136.121942z" fill="#EF8E25" p-id="5594"></path><path d="M829.742644 378.555122h-11.45693v-80.538816H1.554059v456.167317a269.816377 269.816377 0 0 0 269.702942 269.816377h277.053527a269.771003 269.771003 0 0 0 269.589507-259.76604h11.774548a193.406593 193.406593 0 0 0 192.839419-192.839419 193.406593 193.406593 0 0 0-192.771358-192.839419z m-147.578872 375.628501a133.853244 133.853244 0 0 1-133.853244 133.694434H271.257001a133.853244 133.853244 0 0 1-133.581-133.694434V434.138249h544.487771z m147.692307-126.071606h-11.343495v-113.434952h11.343495a56.717476 56.717476 0 0 1 0 113.434952z" fill="#FCAC38" p-id="5595"></path></svg>